# xmcd CD database file generated by Grip 3.2.0
# 
# Track frame offsets:
#       150
#       16935
#       31877
#       54300
#       70077
#       81067
#       95946
#       118295
# 
# Disc length: 1638 seconds
# 
# Revision: 4
# Processed by: cddbd v1.5.1PL0 Copyright (c) Steve Scherf et al.
# Submitted via: Grip 3.2.0
# 
DISCID=63066408
DTITLE=Main Concept - Sounds fürs Auditorium
DYEAR=1999
DGENRE=Hip-Hop
TTITLE0=Sounds fürs Auditorium (LP-Version)
TTITLE1=Sounds fürs Auditorium (Organic Mix)
TTITLE2=Der Eine
TTITLE3=Gedankenflashflowsnacks (Extended Version)
TTITLE4=Sounds fürs Auditorium (LP Version Bonus Beats)
TTITLE5=Sounds fürs Auditorium (Organic Mix Instrumental)
TTITLE6=Der Eine (Instrumental)
TTITLE7=Gedankenflashflowsnacks (Bonus Beats)
EXTD=YEAR: 2001  ID3G:   7
EXTT0=
EXTT1=
EXTT2=
EXTT3=
EXTT4=
EXTT5=
EXTT6=
EXTT7=
PLAYORDER=
